{"title":"Lana Del Rey - High By The Beach (2015.Pop)","uid":12275967,"size":150118071,"categoryP":"video","categoryS":"music_videos","magnet":"?xt=urn:btih:6b4d379aa0906703462c5bdb9172255a64cff01f&amp;dn=Lana+Del+Rey+-+High+By+The+Beach+%282015.Pop%29&amp;tr=udp%3A%2F%2Ftracker.openbittorrent.com%3A80&amp;tr=udp%3A%2F%2Fopen.demonii.com%3A1337&amp;tr=udp%3A%2F%2Ftracker.coppersurfer.tk%3A6969&amp;tr=udp%3A%2F%2Fexodus.desync.com%3A6969","seeders":1,"leechers":0,"uploader":"MeRaDil","files":1,"time":1440353966,"description":"LANA DEL REY - HIGH BY THE BEACH\n\n &lt;a href=&quot;\nhttp://gifyu.com/images/DelRey-2.png&quot; rel=&quot;nofollow&quot; target=&quot;_NEW&quot;&gt;\nhttp://gifyu.com/images/DelRey-2.png&lt;/a&gt;\n &lt;a href=&quot;\nhttp://gifyu.com/images/DelRey-3.png&quot; rel=&quot;nofollow&quot; target=&quot;_NEW&quot;&gt;\nhttp://gifyu.com/images/DelRey-3.png&lt;/a&gt;\n\n\nGeneral\nLana Del Rey - High By The Beach\nFormat                                   : MPEG-4\nFormat profile                           : Base Media\nCodec ID                                 : isom\nFile size                                : 143 MiB\nDuration                                 : 4mn 57s\nOverall bit rate                         : 4 031 Kbps\nMusicVid name                            : High By The Beach\nAlbum                                    : Honeymoon\nPerformer                                : Lana Del Rey\nGenre                                    : Trap Pop\nContentType                              : Music Video\nRecorded date                            : 2015\nRating                                   : None\nMake                                     : MeRaDil\nRelease date                             : USA . august 13 . 2015\n\nVideo\nID                                       : 1\nFormat                                   : AVC\nFormat/Info                              : Advanced Video Codec\nFormat profile                           : &lt;a class=&quot;__cf_email__&quot; href=&quot;/cdn-cgi/l/email-protection&quot; data-cfemail=&quot;5a12333d321a166e746a&quot;&gt;[email&amp;#160;protected]&lt;/a&gt;&lt;script data-cfhash='f9e31' type=&quot;text/javascript&quot;&gt;\n/* &lt;![CDATA[ */!function(){try{var t=&quot;currentScript&quot;in document?document.currentScript:function(){for(var t=document.getElementsByTagName(&quot;script&quot;),e=t.length;e--;)if(t[e].getAttribute(&quot;data-cfhash&quot;))return t[e]}();if(t&amp;&amp;t.previousSibling){var e,r,n,i,c=t.previousSibling,a=c.getAttribute(&quot;data-cfemail&quot;);if(a){for(e=&quot;&quot;,r=parseInt(a.substr(0,2),16),n=2;a.length-n;n+=2)i=parseInt(a.substr(n,2),16)^r,e+=String.fromCharCode(i);e=document.createTextNode(e),c.parentNode.replaceChild(e,c)}t.parentNode.removeChild(t);}}catch(u){}}()/* ]]&gt; */&lt;/script&gt;\nFormat settings, CABAC                   : Yes\nFormat settings, ReFrames                : 2 frames\nCodec ID                                 : avc1\nCodec ID/Info                            : Advanced Video Coding\nDuration                                 : 4mn 57s\nBit rate                                 : 3 759 Kbps\nWidth                                    : 1 920 pixels\nHeight                                   : 1 080 pixels\nDisplay aspect ratio                     : 16:9\nFrame rate mode                          : Variable\nFrame rate                               : 23.976 fps\nMinimum frame rate                       : 23.974 fps\nMaximum frame rate                       : 23.981 fps\nColor space                              : YUV\nChroma subsampling                       : 4:2:0\nBit depth                                : 8 bits\nScan type                                : Progressive\nBits/(Pixel*Frame)                       : 0.076\nStream size                              : 133 MiB (93%)\n\nAudio\nID                                       : 2\nFormat                                   : AAC\nFormat/Info                              : Advanced Audio Codec\nFormat profile                           : LC\nCodec ID                                 : 40\nDuration                                 : 4mn 57s\nBit rate mode                            : Constant\nBit rate                                 : 256 Kbps\nChannel(s)                               : 2 channels\nChannel positions                        : Front: L R\nSampling rate                            : 44.1 KHz\nCompression mode                         : Lossy\nStream size                              : 9.09 MiB (6%)\n &lt;a href=&quot;\nhttps://thepiratebay.se/user/MeRaDil&quot; rel=&quot;nofollow&quot; target=&quot;_NEW&quot;&gt;\nhttps://thepiratebay.se/user/MeRaDil&lt;/a&gt;\n\nLana Del Rey * Honeymoon * Trap Pop * Promo","torrent":{"xt":"urn:btih:6b4d379aa0906703462c5bdb9172255a64cff01f","amp;dn":"Lana+Del+Rey+-+High+By+The+Beach+%282015.Pop%29","amp;tr":["udp%3A%2F%2Ftracker.openbittorrent.com%3A80","udp%3A%2F%2Fopen.demonii.com%3A1337","udp%3A%2F%2Ftracker.coppersurfer.tk%3A6969","udp%3A%2F%2Fexodus.desync.com%3A6969"],"infoHash":"6b4d379aa0906703462c5bdb9172255a64cff01f","infoHashBuffer":{"type":"Buffer","data":[107,77,55,154,160,144,103,3,70,44,91,219,145,114,37,90,100,207,240,31]},"announce":[],"urlList":[]}}